<svg xmlns="http://www.w3.org/2000/svg" xmlns:xlink="http://www.w3.org/1999/xlink" width="500" zoomAndPan="magnify" viewBox="0 0 375 374.999991" height="500" preserveAspectRatio="xMidYMid meet" version="1.0"><defs><g/><clipPath id="8b64423a48"><path d="M 136 82 L 234 82 L 234 209 L 136 209 Z M 136 82 " clip-rule="nonzero"/></clipPath><clipPath id="3f0640a5a9"><path d="M 129.222656 93.226562 L 225.648438 78.800781 L 243.960938 201.1875 L 147.535156 215.613281 Z M 129.222656 93.226562 " clip-rule="nonzero"/></clipPath><clipPath id="ee289be20c"><path d="M 129.222656 93.226562 L 225.648438 78.800781 L 243.960938 201.1875 L 147.535156 215.613281 Z M 129.222656 93.226562 " clip-rule="nonzero"/></clipPath><clipPath id="19cfe9c516"><path d="M 163 129 L 208 129 L 208 193 L 163 193 Z M 163 129 " clip-rule="nonzero"/></clipPath><clipPath id="2227f494bb"><path d="M 129.222656 93.226562 L 225.648438 78.800781 L 243.960938 201.1875 L 147.535156 215.613281 Z M 129.222656 93.226562 " clip-rule="nonzero"/></clipPath><clipPath id="5d0f305b1b"><path d="M 129.222656 93.226562 L 225.648438 78.800781 L 243.960938 201.1875 L 147.535156 215.613281 Z M 129.222656 93.226562 " clip-rule="nonzero"/></clipPath><clipPath id="6d6bfcfc3f"><path d="M 100.175781 202.539062 L 277 202.539062 L 277 251.289062 L 100.175781 251.289062 Z M 100.175781 202.539062 " clip-rule="nonzero"/></clipPath><clipPath id="39a1a8f492"><path d="M 124.496094 202.539062 L 252.476562 202.539062 C 265.910156 202.539062 276.800781 213.429688 276.800781 226.859375 C 276.800781 240.292969 265.910156 251.183594 252.476562 251.183594 L 124.496094 251.183594 C 111.0625 251.183594 100.175781 240.292969 100.175781 226.859375 C 100.175781 213.429688 111.0625 202.539062 124.496094 202.539062 Z M 124.496094 202.539062 " clip-rule="nonzero"/></clipPath><clipPath id="86a1b3c4d8"><path d="M 108.65625 210.621094 L 192.765625 210.621094 L 192.765625 243.097656 L 108.65625 243.097656 Z M 108.65625 210.621094 " clip-rule="nonzero"/></clipPath><clipPath id="e8376d8ca5"><path d="M 124.894531 210.621094 L 176.433594 210.621094 C 185.402344 210.621094 192.671875 217.890625 192.671875 226.859375 C 192.671875 235.828125 185.402344 243.097656 176.433594 243.097656 L 124.894531 243.097656 C 115.925781 243.097656 108.65625 235.828125 108.65625 226.859375 C 108.65625 217.890625 115.925781 210.621094 124.894531 210.621094 Z M 124.894531 210.621094 " clip-rule="nonzero"/></clipPath><clipPath id="0baebb9230"><path d="M 0.65625 0.621094 L 84.71875 0.621094 L 84.71875 33.097656 L 0.65625 33.097656 Z M 0.65625 0.621094 " clip-rule="nonzero"/></clipPath><clipPath id="9f243c2e42"><path d="M 16.894531 0.621094 L 68.433594 0.621094 C 77.402344 0.621094 84.671875 7.890625 84.671875 16.859375 C 84.671875 25.828125 77.402344 33.097656 68.433594 33.097656 L 16.894531 33.097656 C 7.925781 33.097656 0.65625 25.828125 0.65625 16.859375 C 0.65625 7.890625 7.925781 0.621094 16.894531 0.621094 Z M 16.894531 0.621094 " clip-rule="nonzero"/></clipPath><clipPath id="982023bb6d"><rect x="0" width="85" y="0" height="34"/></clipPath></defs><rect x="-37.5" width="450" fill="#ffffff" y="-37.499999" height="449.999989" fill-opacity="1"/><rect x="-37.5" width="450" fill="#cf0063" y="-37.499999" height="449.999989" fill-opacity="1"/><g clip-path="url(#8b64423a48)"><g clip-path="url(#3f0640a5a9)"><g clip-path="url(#ee289be20c)"><path fill="#eef1ff" d="M 225.574219 112.265625 C 222.96875 103.9375 218.359375 93.820312 213.253906 88.050781 C 210.960938 85.460938 208.472656 83.632812 205.84375 82.992188 C 202.753906 82.234375 199.777344 83.023438 197.078125 85.902344 C 194.53125 88.613281 192.238281 93.460938 190.410156 101.125 L 169.246094 104.292969 C 165.253906 97.5 161.640625 93.535156 158.414062 91.6875 C 154.992188 89.726562 151.914062 89.84375 149.179688 91.46875 C 146.855469 92.851562 145.007812 95.328125 143.574219 98.480469 C 140.359375 105.542969 138.914062 116.683594 138.882812 125.441406 C 136.660156 130.847656 135.816406 136.894531 136.738281 143.066406 L 137.234375 146.386719 C 139.285156 160.089844 149.484375 170.664062 162.160156 173.917969 C 162.128906 176.554688 162.28125 179.105469 162.625 181.546875 C 163.648438 188.886719 166.355469 195.183594 170.542969 199.851562 C 174.839844 204.648438 180.625 207.691406 187.679688 208.363281 C 190.160156 208.601562 192.8125 208.539062 195.625 208.144531 L 195.675781 208.136719 C 198.484375 207.691406 201.035156 206.972656 203.335938 206.023438 C 209.886719 203.308594 214.527344 198.710938 217.234375 192.867188 C 219.871094 187.179688 220.617188 180.363281 219.449219 173.046875 C 219.058594 170.613281 218.460938 168.128906 217.65625 165.617188 C 221.394531 163.335938 224.628906 160.351562 227.199219 156.878906 C 232.3125 149.972656 234.796875 141.117188 233.433594 131.996094 L 232.9375 128.679688 C 232 122.417969 229.367188 116.816406 225.574219 112.265625 Z M 201.949219 90.46875 C 202.785156 89.582031 203.5625 89.304688 204.273438 89.480469 C 205.453125 89.765625 206.816406 90.863281 208.25 92.488281 C 210.757812 95.320312 213.160156 99.464844 215.203125 103.902344 C 213.863281 103.207031 212.472656 102.597656 211.042969 102.078125 C 211.042969 102.078125 211.046875 102.078125 211.046875 102.078125 C 207.417969 94.9375 203.546875 91.78125 201.019531 100.125 C 199.871094 100.078125 198.714844 100.09375 197.546875 100.171875 C 198.902344 95.222656 200.390625 92.125 201.949219 90.46875 Z M 149.660156 101.25 C 150.554688 99.277344 151.539062 97.832031 152.582031 97.210938 C 153.214844 96.835938 154.039062 96.871094 155.09375 97.476562 C 157.066406 98.609375 159.402344 101.132812 162.148438 105.46875 C 161.230469 105.6875 160.328125 105.945312 159.445312 106.234375 C 154.714844 99.265625 151.964844 103.140625 150.570312 110.722656 C 149.0625 111.796875 147.648438 112.988281 146.34375 114.285156 C 146.996094 109.414062 148.085938 104.714844 149.660156 101.25 Z M 211.171875 190.0625 C 209.171875 194.382812 205.707031 197.796875 200.796875 199.828125 C 198.9375 200.597656 196.894531 201.171875 194.664062 201.53125 C 192.421875 201.84375 190.300781 201.890625 188.300781 201.699219 C 183.007812 201.191406 178.695312 198.941406 175.519531 195.398438 C 172.226562 191.730469 170.078125 186.640625 169.242188 180.609375 C 168.988281 178.800781 168.855469 176.898438 168.847656 174.921875 C 170.988281 175.023438 173.171875 174.917969 175.371094 174.589844 L 187.769531 172.734375 L 188.625 178.445312 C 187.296875 179.089844 186.164062 180.042969 185.308594 181.199219 C 183.9375 183.054688 183.273438 185.433594 183.640625 187.894531 C 184.007812 190.355469 185.339844 192.4375 187.195312 193.808594 C 189.050781 195.179688 191.429688 195.847656 193.890625 195.480469 C 196.351562 195.109375 198.433594 193.78125 199.804688 191.921875 C 201.179688 190.066406 201.84375 187.6875 201.476562 185.226562 C 201.109375 182.765625 199.773438 180.683594 197.917969 179.3125 C 196.761719 178.457031 195.402344 177.875 193.945312 177.648438 L 193.089844 171.9375 L 205.222656 170.125 C 207.421875 169.796875 209.535156 169.257812 211.558594 168.53125 C 212.128906 170.421875 212.558594 172.277344 212.847656 174.082031 C 213.808594 180.097656 213.246094 185.589844 211.171875 190.0625 Z M 191.621094 180.300781 C 193.351562 180.042969 195.019531 180.507812 196.324219 181.472656 C 197.628906 182.441406 198.5625 183.902344 198.820312 185.628906 C 199.078125 187.359375 198.613281 189.027344 197.652344 190.332031 C 196.6875 191.636719 195.226562 192.574219 193.496094 192.832031 C 191.765625 193.089844 190.097656 192.625 188.792969 191.660156 C 187.488281 190.695312 186.554688 189.230469 186.296875 187.503906 C 186.039062 185.773438 186.503906 184.105469 187.464844 182.800781 C 188.429688 181.496094 189.890625 180.558594 191.621094 180.300781 Z M 226.800781 132.984375 C 227.890625 140.277344 225.894531 147.359375 221.804688 152.890625 C 217.714844 158.421875 211.527344 162.402344 204.230469 163.492188 L 174.378906 167.960938 C 159.78125 170.144531 146.054688 159.988281 143.871094 145.394531 L 143.375 142.074219 C 142.28125 134.78125 144.277344 127.699219 148.367188 122.167969 C 152.460938 116.640625 158.648438 112.660156 165.941406 111.566406 L 195.792969 107.101562 C 210.390625 104.917969 224.117188 115.074219 226.300781 129.667969 Z M 215.214844 131.78125 L 215.578125 134.207031 C 216.375 139.535156 214.917969 144.710938 211.929688 148.753906 C 208.9375 152.796875 204.414062 155.707031 199.085938 156.503906 L 177.261719 159.769531 C 166.589844 161.367188 156.554688 153.941406 154.960938 143.273438 L 154.597656 140.847656 C 153.796875 135.515625 155.253906 130.339844 158.246094 126.300781 C 161.238281 122.253906 165.761719 119.347656 171.09375 118.550781 L 192.917969 115.285156 C 203.582031 113.691406 213.621094 121.113281 215.214844 131.78125 Z M 215.214844 131.78125 " fill-opacity="1" fill-rule="evenodd"/></g></g></g><g clip-path="url(#19cfe9c516)"><g clip-path="url(#2227f494bb)"><g clip-path="url(#5d0f305b1b)"><path fill="#ef3aa5" d="M 196.324219 181.472656 C 197.625 182.4375 198.5625 183.898438 198.820312 185.625 C 199.078125 187.355469 198.613281 189.027344 197.648438 190.332031 C 196.683594 191.636719 195.222656 192.570312 193.496094 192.828125 C 191.765625 193.085938 190.097656 192.621094 188.792969 191.65625 C 187.488281 190.695312 186.554688 189.230469 186.296875 187.5 C 186.035156 185.773438 186.503906 184.101562 187.464844 182.796875 C 188.429688 181.492188 189.890625 180.558594 191.621094 180.296875 C 193.351562 180.042969 195.023438 180.507812 196.324219 181.472656 Z M 173.59375 133.613281 C 172.417969 133.222656 171.203125 133.148438 170.03125 133.347656 C 168.867188 133.546875 167.753906 134.023438 166.777344 134.734375 C 164.589844 136.335938 163.085938 139.125 163.296875 142.667969 C 163.316406 143.019531 163.472656 143.320312 163.75 143.542969 C 164.027344 143.761719 164.351562 143.84375 164.703125 143.785156 L 164.960938 143.742188 C 165.570312 143.640625 166 143.101562 165.964844 142.488281 C 165.828125 139.945312 166.855469 137.988281 168.351562 136.894531 C 168.996094 136.425781 169.722656 136.113281 170.476562 135.980469 C 171.222656 135.851562 172.003906 135.902344 172.753906 136.152344 C 174.585938 136.761719 176.273438 138.582031 177.085938 141.957031 C 177.234375 142.574219 177.832031 142.972656 178.457031 142.867188 L 178.710938 142.824219 C 179.054688 142.769531 179.324219 142.59375 179.519531 142.300781 C 179.710938 142.011719 179.765625 141.691406 179.6875 141.351562 C 178.628906 136.9375 176.230469 134.492188 173.59375 133.613281 Z M 202.109375 129.453125 C 200.964844 129.058594 199.761719 128.929688 198.589844 129.078125 C 197.414062 129.226562 196.269531 129.65625 195.265625 130.375 C 192.996094 131.984375 191.417969 135.023438 191.699219 139.558594 C 191.722656 139.910156 191.871094 140.195312 192.140625 140.417969 C 192.410156 140.640625 192.722656 140.730469 193.066406 140.683594 L 193.320312 140.648438 C 193.949219 140.566406 194.40625 140.011719 194.367188 139.378906 C 194.15625 135.914062 195.238281 133.675781 196.808594 132.558594 C 197.453125 132.097656 198.183594 131.824219 198.9375 131.730469 C 199.695312 131.632812 200.484375 131.71875 201.234375 131.980469 C 202.988281 132.589844 204.542969 134.160156 205.152344 136.628906 C 205.300781 137.230469 205.867188 137.617188 206.480469 137.535156 L 206.742188 137.503906 C 207.09375 137.457031 207.378906 137.285156 207.578125 136.988281 C 207.78125 136.695312 207.84375 136.363281 207.757812 136.019531 C 206.921875 132.5625 204.667969 130.339844 202.109375 129.453125 Z M 202.109375 129.453125 " fill-opacity="1" fill-rule="nonzero"/></g></g></g><g clip-path="url(#6d6bfcfc3f)"><g clip-path="url(#39a1a8f492)"><path stroke-linecap="butt" transform="matrix(0.75, 0, 0, 0.75, 100.173946, 202.538454)" fill="none" stroke-linejoin="miter" d="M 32.429533 0.000811467 L 203.070169 0.000811467 C 220.981628 0.000811467 235.502463 14.521646 235.502463 32.427897 C 235.502463 50.339356 220.981628 64.860191 203.070169 64.860191 L 32.429533 64.860191 C 14.518073 64.860191 0.0024471 50.339356 0.0024471 32.427897 C 0.0024471 14.521646 14.518073 0.000811467 32.429533 0.000811467 Z M 32.429533 0.000811467 " stroke="#eef1ff" stroke-width="18" stroke-opacity="1" stroke-miterlimit="4"/></g></g><g clip-path="url(#86a1b3c4d8)"><g clip-path="url(#e8376d8ca5)"><g transform="matrix(1, 0, 0, 1, 108, 210)"><g clip-path="url(#982023bb6d)"><g clip-path="url(#0baebb9230)"><g clip-path="url(#9f243c2e42)"><path fill="#eef1ff" d="M 0.65625 0.621094 L 84.636719 0.621094 L 84.636719 33.097656 L 0.65625 33.097656 Z M 0.65625 0.621094 " fill-opacity="1" fill-rule="nonzero"/></g></g></g></g></g></g><g fill="#cf0063" fill-opacity="1"><g transform="translate(118.448787, 233.24181)"><g><path d="M 8.703125 0 L 8.703125 -4.890625 L 2.953125 -4.890625 L 2.953125 0 L 1.578125 0 L 1.578125 -10.859375 L 2.953125 -10.859375 L 2.953125 -6.1875 L 8.703125 -6.1875 L 8.703125 -10.859375 L 10.0625 -10.859375 L 10.0625 0 Z M 8.703125 0 "/></g></g></g><g fill="#cf0063" fill-opacity="1"><g transform="translate(131.280497, 233.24181)"><g><path d="M 5.640625 0.1875 C 4.328125 0.1875 3.300781 -0.21875 2.5625 -1.03125 C 1.820312 -1.851562 1.453125 -2.984375 1.453125 -4.421875 L 1.453125 -10.859375 L 2.8125 -10.859375 L 2.8125 -4.515625 C 2.8125 -3.410156 3.050781 -2.570312 3.53125 -2 C 4.019531 -1.425781 4.722656 -1.140625 5.640625 -1.140625 C 7.535156 -1.140625 8.484375 -2.265625 8.484375 -4.515625 L 8.484375 -10.859375 L 9.859375 -10.859375 L 9.859375 -4.421875 C 9.859375 -2.984375 9.484375 -1.851562 8.734375 -1.03125 C 7.992188 -0.21875 6.960938 0.1875 5.640625 0.1875 Z M 5.640625 0.1875 "/></g></g></g><g fill="#cf0063" fill-opacity="1"><g transform="translate(143.770864, 233.24181)"><g><path d="M 1.578125 0 L 1.578125 -10.859375 L 2.859375 -10.859375 L 7.125 -4.421875 L 11.359375 -10.859375 L 12.625 -10.859375 L 12.625 0 L 11.265625 0 L 11.265625 -8.296875 L 7.671875 -2.890625 L 6.546875 -2.890625 L 2.953125 -8.3125 L 2.953125 0 Z M 1.578125 0 "/></g></g></g><g fill="#cf0063" fill-opacity="1"><g transform="translate(159.162663, 233.24181)"><g><path d="M 0.265625 0 L 4.734375 -10.859375 L 6 -10.859375 L 10.46875 0 L 9.03125 0 L 8 -2.46875 L 2.71875 -2.46875 L 1.71875 0 Z M 3.25 -3.734375 L 7.5 -3.734375 L 5.375 -8.953125 Z M 3.25 -3.734375 "/></g></g></g><g fill="#cf0063" fill-opacity="1"><g transform="translate(171.078949, 233.24181)"><g><path d="M 1.578125 0 L 1.578125 -10.859375 L 2.875 -10.859375 L 8.875 -2.359375 L 8.875 -10.859375 L 10.203125 -10.859375 L 10.203125 0 L 8.9375 0 L 2.9375 -8.5 L 2.9375 0 Z M 1.578125 0 "/></g></g></g><g fill="#eef1ff" fill-opacity="1"><g transform="translate(206.455098, 233.24181)"><g><path d="M 3.734375 0 L 3.734375 -7.953125 L 0.4375 -7.953125 L 0.4375 -10.859375 L 10.15625 -10.859375 L 10.15625 -7.953125 L 6.859375 -7.953125 L 6.859375 0 Z M 3.734375 0 "/></g></g></g><g fill="#eef1ff" fill-opacity="1"><g transform="translate(217.052314, 233.24181)"><g><path d="M 1.140625 0 L 1.140625 -10.859375 L 8.59375 -10.859375 L 8.59375 -8.328125 L 4.25 -8.328125 L 4.25 -6.75 L 8.171875 -6.75 L 8.171875 -4.234375 L 4.25 -4.234375 L 4.25 -2.5625 L 8.765625 -2.5625 L 8.765625 0 Z M 1.140625 0 "/></g></g></g><g fill="#eef1ff" fill-opacity="1"><g transform="translate(226.516887, 233.24181)"><g><path d="M 6.21875 0.234375 C 5.09375 0.234375 4.101562 0 3.25 -0.46875 C 2.394531 -0.945312 1.726562 -1.613281 1.25 -2.46875 C 0.769531 -3.320312 0.53125 -4.3125 0.53125 -5.4375 C 0.53125 -6.550781 0.765625 -7.535156 1.234375 -8.390625 C 1.710938 -9.242188 2.378906 -9.90625 3.234375 -10.375 C 4.085938 -10.851562 5.070312 -11.09375 6.1875 -11.09375 C 7.164062 -11.09375 8.046875 -10.90625 8.828125 -10.53125 C 9.609375 -10.15625 10.265625 -9.628906 10.796875 -8.953125 C 11.335938 -8.285156 11.703125 -7.492188 11.890625 -6.578125 L 8.71875 -6.578125 C 8.550781 -7.066406 8.25 -7.457031 7.8125 -7.75 C 7.382812 -8.039062 6.882812 -8.1875 6.3125 -8.1875 C 5.800781 -8.1875 5.347656 -8.070312 4.953125 -7.84375 C 4.566406 -7.613281 4.257812 -7.289062 4.03125 -6.875 C 3.8125 -6.457031 3.703125 -5.976562 3.703125 -5.4375 C 3.703125 -4.894531 3.8125 -4.410156 4.03125 -3.984375 C 4.25 -3.566406 4.550781 -3.242188 4.9375 -3.015625 C 5.332031 -2.785156 5.78125 -2.671875 6.28125 -2.671875 C 6.875 -2.671875 7.382812 -2.820312 7.8125 -3.125 C 8.25 -3.425781 8.566406 -3.832031 8.765625 -4.34375 L 11.953125 -4.34375 C 11.796875 -3.425781 11.453125 -2.625 10.921875 -1.9375 C 10.390625 -1.25 9.722656 -0.710938 8.921875 -0.328125 C 8.128906 0.046875 7.226562 0.234375 6.21875 0.234375 Z M 6.21875 0.234375 "/></g></g></g><g fill="#eef1ff" fill-opacity="1"><g transform="translate(238.96047, 233.24181)"><g><path d="M 7.640625 0 L 7.640625 -4.078125 L 4.28125 -4.078125 L 4.28125 0 L 1.140625 0 L 1.140625 -10.859375 L 4.28125 -10.859375 L 4.28125 -6.96875 L 7.640625 -6.96875 L 7.640625 -10.859375 L 10.765625 -10.859375 L 10.765625 0 Z M 7.640625 0 "/></g></g></g><g fill="#eef1ff" fill-opacity="1"><g transform="translate(126.616783, 267.317649)"><g><path d="M 0.28125 -6.4375 L 0.28125 -7.203125 C 0.28125 -7.347656 0.351562 -7.421875 0.5 -7.421875 L 5.59375 -7.421875 C 5.65625 -7.421875 5.703125 -7.398438 5.734375 -7.359375 C 5.773438 -7.316406 5.796875 -7.265625 5.796875 -7.203125 L 5.796875 -6.4375 C 5.796875 -6.289062 5.726562 -6.21875 5.59375 -6.21875 L 3.71875 -6.21875 L 3.71875 -0.203125 C 3.71875 -0.0664062 3.644531 0 3.5 0 L 2.5625 0 C 2.414062 0 2.34375 -0.0664062 2.34375 -0.203125 L 2.34375 -6.21875 L 0.5 -6.21875 C 0.4375 -6.21875 0.382812 -6.234375 0.34375 -6.265625 C 0.300781 -6.304688 0.28125 -6.363281 0.28125 -6.4375 Z M 0.28125 -6.4375 "/></g></g></g><g fill="#eef1ff" fill-opacity="1"><g transform="translate(137.998367, 267.317649)"><g><path d="M 6.25 -1.3125 C 6.34375 -1.3125 6.414062 -1.285156 6.46875 -1.234375 C 6.519531 -1.179688 6.546875 -1.113281 6.546875 -1.03125 L 6.546875 -0.21875 C 6.546875 -0.15625 6.523438 -0.101562 6.484375 -0.0625 C 6.453125 -0.0195312 6.398438 0 6.328125 0 L 1.109375 0 C 0.960938 0 0.890625 -0.0703125 0.890625 -0.21875 L 0.890625 -7.203125 C 0.890625 -7.347656 0.960938 -7.421875 1.109375 -7.421875 L 6.21875 -7.421875 C 6.289062 -7.421875 6.347656 -7.398438 6.390625 -7.359375 C 6.429688 -7.316406 6.453125 -7.265625 6.453125 -7.203125 L 6.453125 -6.328125 C 6.453125 -6.179688 6.375 -6.109375 6.21875 -6.109375 L 2.265625 -6.109375 L 2.265625 -4.0625 L 5.359375 -4.0625 C 5.441406 -4.0625 5.503906 -4.039062 5.546875 -4 C 5.597656 -3.96875 5.625 -3.910156 5.625 -3.828125 L 5.625 -3.015625 C 5.625 -2.953125 5.597656 -2.898438 5.546875 -2.859375 C 5.503906 -2.816406 5.441406 -2.796875 5.359375 -2.796875 L 2.265625 -2.796875 L 2.265625 -1.3125 Z M 6.25 -1.3125 "/></g></g></g><g fill="#eef1ff" fill-opacity="1"><g transform="translate(150.346369, 267.317649)"><g><path d="M 5.78125 -1.78125 C 5.84375 -1.820312 5.90625 -1.84375 5.96875 -1.84375 C 6.03125 -1.84375 6.082031 -1.816406 6.125 -1.765625 L 6.671875 -0.921875 C 6.703125 -0.890625 6.707031 -0.84375 6.6875 -0.78125 C 6.664062 -0.726562 6.628906 -0.679688 6.578125 -0.640625 C 6.378906 -0.492188 6.148438 -0.363281 5.890625 -0.25 C 5.640625 -0.132812 5.378906 -0.046875 5.109375 0.015625 C 4.835938 0.0859375 4.578125 0.125 4.328125 0.125 C 3.890625 0.125 3.472656 0.0625 3.078125 -0.0625 C 2.691406 -0.195312 2.335938 -0.378906 2.015625 -0.609375 C 1.691406 -0.835938 1.410156 -1.109375 1.171875 -1.421875 C 0.941406 -1.742188 0.757812 -2.097656 0.625 -2.484375 C 0.5 -2.867188 0.4375 -3.273438 0.4375 -3.703125 C 0.4375 -4.128906 0.5 -4.535156 0.625 -4.921875 C 0.757812 -5.304688 0.941406 -5.65625 1.171875 -5.96875 C 1.410156 -6.289062 1.691406 -6.566406 2.015625 -6.796875 C 2.335938 -7.035156 2.691406 -7.21875 3.078125 -7.34375 C 3.472656 -7.46875 3.890625 -7.53125 4.328125 -7.53125 C 4.578125 -7.53125 4.835938 -7.5 5.109375 -7.4375 C 5.378906 -7.375 5.644531 -7.285156 5.90625 -7.171875 C 6.164062 -7.054688 6.398438 -6.914062 6.609375 -6.75 C 6.660156 -6.707031 6.691406 -6.660156 6.703125 -6.609375 C 6.710938 -6.554688 6.703125 -6.507812 6.671875 -6.46875 L 6.125 -5.625 C 6.09375 -5.582031 6.046875 -5.554688 5.984375 -5.546875 C 5.929688 -5.546875 5.867188 -5.570312 5.796875 -5.625 C 5.597656 -5.800781 5.363281 -5.929688 5.09375 -6.015625 C 4.832031 -6.109375 4.578125 -6.15625 4.328125 -6.15625 C 3.972656 -6.15625 3.644531 -6.09375 3.34375 -5.96875 C 3.039062 -5.84375 2.773438 -5.664062 2.546875 -5.4375 C 2.316406 -5.21875 2.132812 -4.957031 2 -4.65625 C 1.875 -4.363281 1.8125 -4.046875 1.8125 -3.703125 C 1.8125 -3.359375 1.875 -3.035156 2 -2.734375 C 2.132812 -2.441406 2.316406 -2.179688 2.546875 -1.953125 C 2.773438 -1.734375 3.039062 -1.5625 3.34375 -1.4375 C 3.644531 -1.320312 3.972656 -1.265625 4.328125 -1.265625 C 4.566406 -1.265625 4.816406 -1.304688 5.078125 -1.390625 C 5.347656 -1.484375 5.582031 -1.613281 5.78125 -1.78125 Z M 5.78125 -1.78125 "/></g></g></g><g fill="#eef1ff" fill-opacity="1"><g transform="translate(162.835924, 267.317649)"><g><path d="M 7.171875 -7.421875 C 7.273438 -7.421875 7.328125 -7.367188 7.328125 -7.265625 L 7.328125 -0.15625 C 7.328125 -0.0507812 7.273438 0 7.171875 0 L 6.109375 0 C 6.003906 0 5.953125 -0.0507812 5.953125 -0.15625 L 5.953125 -2.359375 L 2.265625 -2.359375 L 2.265625 -0.15625 C 2.265625 -0.0507812 2.210938 0 2.109375 0 L 1.046875 0 C 0.941406 0 0.890625 -0.0507812 0.890625 -0.15625 L 0.890625 -7.265625 C 0.890625 -7.367188 0.941406 -7.421875 1.046875 -7.421875 L 2.109375 -7.421875 C 2.210938 -7.421875 2.265625 -7.367188 2.265625 -7.265625 L 2.265625 -3.5625 L 5.953125 -3.5625 L 5.953125 -7.265625 C 5.953125 -7.367188 6.003906 -7.421875 6.109375 -7.421875 Z M 7.171875 -7.421875 "/></g></g></g><g fill="#eef1ff" fill-opacity="1"><g transform="translate(176.350469, 267.317649)"><g><path d="M 7.328125 -7.421875 C 7.429688 -7.421875 7.484375 -7.367188 7.484375 -7.265625 L 7.484375 -0.125 C 7.484375 -0.0625 7.460938 -0.0078125 7.421875 0.03125 C 7.390625 0.0703125 7.347656 0.09375 7.296875 0.09375 C 7.234375 0.09375 7.179688 0.0703125 7.140625 0.03125 C 7.097656 0 7.046875 -0.0351562 6.984375 -0.078125 L 2.265625 -4.5625 L 2.265625 -0.15625 C 2.265625 -0.0507812 2.210938 0 2.109375 0 L 1.046875 0 C 0.941406 0 0.890625 -0.0507812 0.890625 -0.15625 L 0.890625 -7.296875 C 0.890625 -7.359375 0.90625 -7.410156 0.9375 -7.453125 C 0.96875 -7.492188 1.007812 -7.515625 1.0625 -7.515625 L 1.078125 -7.515625 C 1.128906 -7.515625 1.175781 -7.492188 1.21875 -7.453125 C 1.257812 -7.421875 1.304688 -7.382812 1.359375 -7.34375 L 6.109375 -2.84375 L 6.109375 -7.265625 C 6.109375 -7.367188 6.164062 -7.421875 6.28125 -7.421875 Z M 7.328125 -7.421875 "/></g></g></g><g fill="#eef1ff" fill-opacity="1"><g transform="translate(190.021202, 267.317649)"><g><path d="M 0.4375 -3.703125 C 0.4375 -4.128906 0.5 -4.535156 0.625 -4.921875 C 0.757812 -5.304688 0.941406 -5.65625 1.171875 -5.96875 C 1.410156 -6.289062 1.6875 -6.566406 2 -6.796875 C 2.320312 -7.035156 2.675781 -7.21875 3.0625 -7.34375 C 3.445312 -7.46875 3.851562 -7.53125 4.28125 -7.53125 C 4.71875 -7.53125 5.128906 -7.46875 5.515625 -7.34375 C 5.898438 -7.21875 6.25 -7.035156 6.5625 -6.796875 C 6.882812 -6.566406 7.160156 -6.289062 7.390625 -5.96875 C 7.628906 -5.65625 7.8125 -5.304688 7.9375 -4.921875 C 8.070312 -4.535156 8.140625 -4.128906 8.140625 -3.703125 C 8.140625 -3.265625 8.070312 -2.851562 7.9375 -2.46875 C 7.8125 -2.09375 7.628906 -1.742188 7.390625 -1.421875 C 7.160156 -1.109375 6.882812 -0.835938 6.5625 -0.609375 C 6.25 -0.378906 5.898438 -0.195312 5.515625 -0.0625 C 5.128906 0.0625 4.71875 0.125 4.28125 0.125 C 3.851562 0.125 3.445312 0.0625 3.0625 -0.0625 C 2.675781 -0.195312 2.320312 -0.378906 2 -0.609375 C 1.6875 -0.835938 1.410156 -1.109375 1.171875 -1.421875 C 0.941406 -1.742188 0.757812 -2.09375 0.625 -2.46875 C 0.5 -2.851562 0.4375 -3.265625 0.4375 -3.703125 Z M 1.8125 -3.703125 C 1.8125 -3.347656 1.875 -3.023438 2 -2.734375 C 2.125 -2.441406 2.300781 -2.179688 2.53125 -1.953125 C 2.757812 -1.734375 3.019531 -1.5625 3.3125 -1.4375 C 3.613281 -1.320312 3.9375 -1.265625 4.28125 -1.265625 C 4.632812 -1.265625 4.957031 -1.320312 5.25 -1.4375 C 5.550781 -1.5625 5.8125 -1.734375 6.03125 -1.953125 C 6.257812 -2.179688 6.4375 -2.441406 6.5625 -2.734375 C 6.695312 -3.023438 6.765625 -3.347656 6.765625 -3.703125 C 6.765625 -4.046875 6.695312 -4.363281 6.5625 -4.65625 C 6.4375 -4.957031 6.257812 -5.21875 6.03125 -5.4375 C 5.8125 -5.664062 5.550781 -5.84375 5.25 -5.96875 C 4.957031 -6.09375 4.632812 -6.15625 4.28125 -6.15625 C 3.9375 -6.15625 3.613281 -6.09375 3.3125 -5.96875 C 3.019531 -5.84375 2.757812 -5.664062 2.53125 -5.4375 C 2.3125 -5.21875 2.132812 -4.957031 2 -4.65625 C 1.875 -4.363281 1.8125 -4.046875 1.8125 -3.703125 Z M 1.8125 -3.703125 "/></g></g></g><g fill="#eef1ff" fill-opacity="1"><g transform="translate(203.892047, 267.317649)"><g><path d="M 5.609375 -1.21875 C 5.722656 -1.21875 5.78125 -1.160156 5.78125 -1.046875 L 5.78125 -0.171875 C 5.78125 -0.0546875 5.722656 0 5.609375 0 L 1.046875 0 C 0.941406 0 0.890625 -0.0546875 0.890625 -0.171875 L 0.890625 -7.265625 C 0.890625 -7.367188 0.941406 -7.421875 1.046875 -7.421875 L 2.109375 -7.421875 C 2.210938 -7.421875 2.265625 -7.367188 2.265625 -7.265625 L 2.265625 -1.21875 Z M 5.609375 -1.21875 "/></g></g></g><g fill="#eef1ff" fill-opacity="1"><g transform="translate(215.156489, 267.317649)"><g><path d="M 0.4375 -3.703125 C 0.4375 -4.128906 0.5 -4.535156 0.625 -4.921875 C 0.757812 -5.304688 0.941406 -5.65625 1.171875 -5.96875 C 1.410156 -6.289062 1.6875 -6.566406 2 -6.796875 C 2.320312 -7.035156 2.675781 -7.21875 3.0625 -7.34375 C 3.445312 -7.46875 3.851562 -7.53125 4.28125 -7.53125 C 4.71875 -7.53125 5.128906 -7.46875 5.515625 -7.34375 C 5.898438 -7.21875 6.25 -7.035156 6.5625 -6.796875 C 6.882812 -6.566406 7.160156 -6.289062 7.390625 -5.96875 C 7.628906 -5.65625 7.8125 -5.304688 7.9375 -4.921875 C 8.070312 -4.535156 8.140625 -4.128906 8.140625 -3.703125 C 8.140625 -3.265625 8.070312 -2.851562 7.9375 -2.46875 C 7.8125 -2.09375 7.628906 -1.742188 7.390625 -1.421875 C 7.160156 -1.109375 6.882812 -0.835938 6.5625 -0.609375 C 6.25 -0.378906 5.898438 -0.195312 5.515625 -0.0625 C 5.128906 0.0625 4.71875 0.125 4.28125 0.125 C 3.851562 0.125 3.445312 0.0625 3.0625 -0.0625 C 2.675781 -0.195312 2.320312 -0.378906 2 -0.609375 C 1.6875 -0.835938 1.410156 -1.109375 1.171875 -1.421875 C 0.941406 -1.742188 0.757812 -2.09375 0.625 -2.46875 C 0.5 -2.851562 0.4375 -3.265625 0.4375 -3.703125 Z M 1.8125 -3.703125 C 1.8125 -3.347656 1.875 -3.023438 2 -2.734375 C 2.125 -2.441406 2.300781 -2.179688 2.53125 -1.953125 C 2.757812 -1.734375 3.019531 -1.5625 3.3125 -1.4375 C 3.613281 -1.320312 3.9375 -1.265625 4.28125 -1.265625 C 4.632812 -1.265625 4.957031 -1.320312 5.25 -1.4375 C 5.550781 -1.5625 5.8125 -1.734375 6.03125 -1.953125 C 6.257812 -2.179688 6.4375 -2.441406 6.5625 -2.734375 C 6.695312 -3.023438 6.765625 -3.347656 6.765625 -3.703125 C 6.765625 -4.046875 6.695312 -4.363281 6.5625 -4.65625 C 6.4375 -4.957031 6.257812 -5.21875 6.03125 -5.4375 C 5.8125 -5.664062 5.550781 -5.84375 5.25 -5.96875 C 4.957031 -6.09375 4.632812 -6.15625 4.28125 -6.15625 C 3.9375 -6.15625 3.613281 -6.09375 3.3125 -5.96875 C 3.019531 -5.84375 2.757812 -5.664062 2.53125 -5.4375 C 2.3125 -5.21875 2.132812 -4.957031 2 -4.65625 C 1.875 -4.363281 1.8125 -4.046875 1.8125 -3.703125 Z M 1.8125 -3.703125 "/></g></g></g><g fill="#eef1ff" fill-opacity="1"><g transform="translate(229.027334, 267.317649)"><g><path d="M 6.703125 -3.78125 C 6.816406 -3.78125 6.875 -3.722656 6.875 -3.609375 L 6.875 -0.828125 C 6.875 -0.773438 6.863281 -0.726562 6.84375 -0.6875 C 6.820312 -0.644531 6.789062 -0.609375 6.75 -0.578125 C 6.601562 -0.484375 6.4375 -0.394531 6.25 -0.3125 C 6.0625 -0.226562 5.859375 -0.148438 5.640625 -0.078125 C 5.421875 -0.015625 5.195312 0.03125 4.96875 0.0625 C 4.75 0.101562 4.535156 0.125 4.328125 0.125 C 3.890625 0.125 3.472656 0.0625 3.078125 -0.0625 C 2.691406 -0.195312 2.335938 -0.378906 2.015625 -0.609375 C 1.691406 -0.835938 1.410156 -1.109375 1.171875 -1.421875 C 0.941406 -1.742188 0.757812 -2.097656 0.625 -2.484375 C 0.5 -2.867188 0.4375 -3.273438 0.4375 -3.703125 C 0.4375 -4.128906 0.5 -4.535156 0.625 -4.921875 C 0.757812 -5.316406 0.941406 -5.671875 1.171875 -5.984375 C 1.410156 -6.296875 1.691406 -6.566406 2.015625 -6.796875 C 2.335938 -7.035156 2.691406 -7.21875 3.078125 -7.34375 C 3.472656 -7.46875 3.890625 -7.53125 4.328125 -7.53125 C 4.578125 -7.53125 4.835938 -7.5 5.109375 -7.4375 C 5.378906 -7.382812 5.644531 -7.300781 5.90625 -7.1875 C 6.164062 -7.082031 6.398438 -6.941406 6.609375 -6.765625 C 6.648438 -6.734375 6.675781 -6.6875 6.6875 -6.625 C 6.695312 -6.570312 6.6875 -6.519531 6.65625 -6.46875 L 6.109375 -5.65625 C 6.078125 -5.601562 6.03125 -5.570312 5.96875 -5.5625 C 5.914062 -5.5625 5.863281 -5.582031 5.8125 -5.625 C 5.664062 -5.757812 5.503906 -5.863281 5.328125 -5.9375 C 5.160156 -6.019531 4.988281 -6.078125 4.8125 -6.109375 C 4.644531 -6.140625 4.484375 -6.15625 4.328125 -6.15625 C 3.972656 -6.15625 3.644531 -6.09375 3.34375 -5.96875 C 3.039062 -5.84375 2.773438 -5.671875 2.546875 -5.453125 C 2.316406 -5.234375 2.140625 -4.972656 2.015625 -4.671875 C 1.890625 -4.367188 1.828125 -4.046875 1.828125 -3.703125 C 1.828125 -3.359375 1.882812 -3.035156 2 -2.734375 C 2.125 -2.429688 2.296875 -2.164062 2.515625 -1.9375 C 2.742188 -1.707031 3.007812 -1.523438 3.3125 -1.390625 C 3.625 -1.265625 3.960938 -1.203125 4.328125 -1.203125 C 4.453125 -1.203125 4.585938 -1.21875 4.734375 -1.25 C 4.890625 -1.28125 5.039062 -1.320312 5.1875 -1.375 C 5.332031 -1.4375 5.457031 -1.5 5.5625 -1.5625 L 5.5625 -2.625 L 4.296875 -2.625 C 4.191406 -2.625 4.140625 -2.675781 4.140625 -2.78125 L 4.140625 -3.609375 C 4.140625 -3.722656 4.191406 -3.78125 4.296875 -3.78125 Z M 6.703125 -3.78125 "/></g></g></g><g fill="#eef1ff" fill-opacity="1"><g transform="translate(241.839028, 267.317649)"><g><path d="M 6.234375 -7.421875 C 6.304688 -7.421875 6.359375 -7.398438 6.390625 -7.359375 C 6.421875 -7.316406 6.414062 -7.253906 6.375 -7.171875 L 3.953125 -2.9375 L 3.953125 -0.21875 C 3.953125 -0.0703125 3.878906 0 3.734375 0 L 2.796875 0 C 2.640625 0 2.5625 -0.0703125 2.5625 -0.21875 L 2.5625 -2.9375 L 0.140625 -7.171875 C 0.109375 -7.253906 0.109375 -7.316406 0.140625 -7.359375 C 0.171875 -7.398438 0.222656 -7.421875 0.296875 -7.421875 L 1.40625 -7.421875 C 1.457031 -7.421875 1.503906 -7.398438 1.546875 -7.359375 C 1.597656 -7.328125 1.640625 -7.285156 1.671875 -7.234375 L 3.265625 -4.34375 L 4.859375 -7.234375 C 4.929688 -7.359375 5.019531 -7.421875 5.125 -7.421875 Z M 6.234375 -7.421875 "/></g></g></g></svg>